<?xml version="1.0" encoding="UTF-8"?>
<svg id="Laag_2" data-name="Laag 2" xmlns="http://www.w3.org/2000/svg" viewBox="0 0 268.11 291.68">
  <defs>
    <style>
      .cls-1 {
        fill: #021d40;
      }
    </style>
  </defs>
  <g id="OBJECTS">
    <g>
      <g>
        <path class="cls-1" d="M73.64,159.2c-22.33,0-40.42,18.1-40.42,40.42s18.1,40.42,40.42,40.42,40.42-18.1,40.42-40.42-18.1-40.42-40.42-40.42ZM73.64,230.82c-17.23,0-31.2-13.97-31.2-31.2s13.97-31.2,31.2-31.2,31.2,13.97,31.2,31.2-13.97,31.2-31.2,31.2Z"/>
        <path class="cls-1" d="M112.74,191.19l-9.51-1.62c2.53-14.87,15.22-25.26,30.86-25.26v9.65c-10.84,0-19.62,7.09-21.35,17.23Z"/>
        <path class="cls-1" d="M81.5,219.96c0-2.54,2.06-4.6,4.6-4.6,2.14,0,3.93,1.46,4.45,3.44.6-1.29.95-2.72.95-4.23,0-5.52-4.48-10-10-10-.65,0-1.27.07-1.89.18.26.57.4,1.21.4,1.88,0,2.54-2.06,4.6-4.6,4.6-1.1,0-2.11-.39-2.9-1.03-.64,1.32-1.01,2.8-1.01,4.37,0,5.52,4.48,10,10,10,.95,0,1.87-.14,2.75-.39-1.62-.71-2.75-2.33-2.75-4.21Z"/>
        <path class="cls-1" d="M186.48,219.96c0-2.54,2.06-4.6,4.6-4.6,2.14,0,3.93,1.46,4.45,3.44.6-1.29.95-2.72.95-4.23,0-5.52-4.48-10-10-10-.65,0-1.27.07-1.89.18.26.57.41,1.21.41,1.88,0,2.54-2.06,4.6-4.6,4.6-1.1,0-2.11-.39-2.9-1.03-.64,1.32-1.01,2.8-1.01,4.37,0,5.52,4.48,10,10,10,.95,0,1.87-.14,2.75-.39-1.62-.71-2.75-2.33-2.75-4.21Z"/>
        <path class="cls-1" d="M34.08,177.94h5.77v11.11h-5.77c-2.94,0-5.33-2.39-5.33-5.33v-.44c0-2.94,2.39-5.33,5.33-5.33Z"/>
        <path class="cls-1" d="M153.74,199.62c0,22.33,18.1,40.42,40.42,40.42s40.42-18.1,40.42-40.42-18.1-40.42-40.42-40.42-40.42,18.1-40.42,40.42ZM162.96,199.62c0-17.23,13.97-31.2,31.2-31.2s31.2,13.97,31.2,31.2-13.97,31.2-31.2,31.2-31.2-13.97-31.2-31.2Z"/>
        <path class="cls-1" d="M155.06,191.19c-1.73-10.14-10.51-17.23-21.35-17.23v-9.65c15.64,0,28.33,10.39,30.86,25.26l-9.51,1.62Z"/>
        <path class="cls-1" d="M233.28,177.94h5.77v11.11h-5.77c-2.94,0-5.33-2.39-5.33-5.33v-.44c0-2.94,2.39-5.33,5.33-5.33Z" transform="translate(467 366.99) rotate(-180)"/>
      </g>
      <path class="cls-1" d="M134.08,291.68c-37.75,0-66.78-11-86.31-32.69-30.98-34.42-27.12-83.22-26.69-87.69l-4.98-70.85,5.78-.41,5.02,71.35-.03.25c-.05.5-4.84,50.12,25.24,83.5,18.38,20.4,45.96,30.74,81.97,30.74s63.59-10.34,81.97-30.74c30.08-33.38,25.29-83.01,25.24-83.5l-.03-.25,5.02-71.35,5.78.41-4.98,70.85c.43,4.47,4.29,53.27-26.69,87.69-19.52,21.69-48.56,32.69-86.31,32.69Z"/>
      <path class="cls-1" d="M134.08,271.94h-.36c-9.73-.12-18.43-5.04-23.33-13.21l4.14-2.48c4.11,6.86,11.17,10.81,19.38,10.87,8.2-.06,15.25-4,19.37-10.85l4.14,2.49c-4.91,8.16-13.6,13.07-23.32,13.19h0Z"/>
      <path class="cls-1" d="M240.92,222.27l-.35-6.75c10.91-.57,19.38-8.5,20.65-19.33,1.1-10.83-5.43-20.41-15.95-23.34l1.81-6.51c13.72,3.82,22.26,16.29,20.87,30.42h0s-.04.36-.04.36t0,0h0c-1.72,14.09-12.77,24.41-27,25.14Z"/>
      <path class="cls-1" d="M27.18,222.27c-14.22-.74-25.27-11.05-26.99-25.14h0s-.04-.33-.04-.33c0-.01,0-.02,0-.03H.15s0,0,0,0h0c-1.39-14.13,7.15-26.6,20.87-30.42l1.81,6.51c-10.53,2.93-17.06,12.52-15.94,23.37,1.28,10.81,9.75,18.74,20.65,19.3l-.35,6.75Z"/>
      <path class="cls-1" d="M146.97,240.89h-19.17c-2.84,0-5.59-1.2-7.52-3.28s-2.92-4.91-2.7-7.75l5.64-60.99,5.77.53-5.63,60.95c-.09,1.21.33,2.4,1.18,3.32.85.92,2.02,1.43,3.27,1.43h19.17v5.79Z"/>
      <path class="cls-1" d="M211.85,195.88c-13.23-20.17-32.17-8.29-32.97-7.78l-3.16-4.85c.24-.16,24.55-15.59,40.97,9.46l-4.84,3.17Z"/>
      <path class="cls-1" d="M55.44,195.88l-4.84-3.17c16.42-25.05,40.72-9.62,40.97-9.46l-3.16,4.85c-.8-.52-19.74-12.4-32.97,7.78Z"/>
      <ellipse class="cls-1" cx="141.45" cy="238" rx="7.36" ry="5.02"/>
      <path class="cls-1" d="M190.29,1.61c-75.72-10.82-118.78,36.26-118.78,36.26,0,0-45.11-19.73-58.77,30.01-11.67,42.51,10.36,114.5,10.36,114.5,0,0,4,3.72,3.69-10.67-.33-15.28,4.91-26.66,9.08-30.89,12.02-12.21,37.77-10.63,43.28-47.09,33.34,31.94,122,17.72,122,17.72,5.22-.02,10.26,1.01,14.89,2.91,12.46,5.13,21.05,16.77,22.94,30.12l2.69,36.1,3.4,6.88s10.66-63.73,12.74-93.33c2.08-29.59-.42-82.94-67.52-92.53ZM33.21,53.76c-12.41,8.8-16.44,26.78-16.44,26.78,0,0,.39-25.21,18.27-35.33,16.23-9.19,34.71,1.33,34.71,1.33,0,0-20.78-3.94-36.54,7.23ZM109.1,23.21c41.72-24.7,104.7-12.09,122.8,9.97,0,0-28.55-14.9-48.1-15.39,0,0,48.1,15.39,54.05,49.28,0,0-42.57-61.77-128.75-43.86Z"/>
      <path class="cls-1" d="M79.14,93.73c17.96,36.09,93.22,31.82,93.22,31.82,0,0-48.65-6.24-62.45-28.26-13.8-22.01-30.77-3.56-30.77-3.56Z"/>
      <path class="cls-1" d="M81.5,82.18s8.04,32.86-26.79,57.17c0,0,16.82-18.07,13.17-42.38-3.64-24.31,13.61-14.78,13.61-14.78Z"/>
      <rect class="cls-1" x="152.84" y="250.45" width="4.83" height="13.22" transform="translate(-144.98 250.9) rotate(-57.69)"/>
      <rect class="cls-1" x="105.16" y="255.08" width="13.22" height="4.83" transform="translate(-120.3 99.57) rotate(-32.3)"/>
    </g>
  </g>
</svg>